<mxfile host="app.diagrams.net" modified="2024-01-03T05:22:38.623Z" agent="Mozilla/5.0 (Windows NT 10.0; Win64; x64) AppleWebKit/537.36 (KHTML, like Gecko) Chrome/120.0.0.0 Safari/537.36" etag="XeazXkVU6IslTCnJ2325" version="22.1.16" type="device">
  <diagram name="Страница — 1" id="_lvICS6UAp055C3Cptf1">
    <mxGraphModel dx="1647" dy="839" grid="1" gridSize="10" guides="1" tooltips="1" connect="1" arrows="1" fold="1" page="1" pageScale="1" pageWidth="827" pageHeight="1169" math="0" shadow="0">
      <root>
        <mxCell id="0" />
        <mxCell id="1" parent="0" />
        <mxCell id="hzM2VJx9JfVP90ObHNJY-1" value="Пользователь" style="shape=umlActor;verticalLabelPosition=bottom;verticalAlign=top;html=1;outlineConnect=0;" parent="1" vertex="1">
          <mxGeometry x="55" y="65" width="30" height="60" as="geometry" />
        </mxCell>
        <mxCell id="hzM2VJx9JfVP90ObHNJY-12" value="" style="rounded=0;orthogonalLoop=1;jettySize=auto;html=1;endArrow=none;endFill=0;entryX=0;entryY=0.5;entryDx=0;entryDy=0;" parent="1" source="vhmcVkispBj3sMKyBSZb-8" target="hzM2VJx9JfVP90ObHNJY-7" edge="1">
          <mxGeometry relative="1" as="geometry">
            <mxPoint x="111.10960958219334" y="281.38419957660733" as="sourcePoint" />
          </mxGeometry>
        </mxCell>
        <mxCell id="hzM2VJx9JfVP90ObHNJY-3" value="Обновить данные" style="rounded=1;whiteSpace=wrap;html=1;" parent="1" vertex="1">
          <mxGeometry x="160" y="25" width="120" height="40" as="geometry" />
        </mxCell>
        <mxCell id="hzM2VJx9JfVP90ObHNJY-21" style="edgeStyle=orthogonalEdgeStyle;rounded=0;orthogonalLoop=1;jettySize=auto;html=1;entryX=1;entryY=0.5;entryDx=0;entryDy=0;dashed=1;exitX=1;exitY=0.5;exitDx=0;exitDy=0;" parent="1" source="mDojmJ12JjbmjBfZj7HK-2" target="hzM2VJx9JfVP90ObHNJY-8" edge="1">
          <mxGeometry relative="1" as="geometry">
            <mxPoint x="590" y="30" as="sourcePoint" />
          </mxGeometry>
        </mxCell>
        <mxCell id="hzM2VJx9JfVP90ObHNJY-4" value="Просмотреть данные" style="rounded=1;whiteSpace=wrap;html=1;" parent="1" vertex="1">
          <mxGeometry x="160" y="125" width="120" height="40" as="geometry" />
        </mxCell>
        <mxCell id="hzM2VJx9JfVP90ObHNJY-5" value="" style="endArrow=none;html=1;rounded=0;edgeStyle=orthogonalEdgeStyle;entryX=0;entryY=0.5;entryDx=0;entryDy=0;" parent="1" source="hzM2VJx9JfVP90ObHNJY-1" target="hzM2VJx9JfVP90ObHNJY-3" edge="1">
          <mxGeometry width="50" height="50" relative="1" as="geometry">
            <mxPoint x="250" y="230" as="sourcePoint" />
            <mxPoint x="150" y="30" as="targetPoint" />
            <Array as="points">
              <mxPoint x="140" y="90" />
              <mxPoint x="140" y="40" />
              <mxPoint x="160" y="40" />
            </Array>
          </mxGeometry>
        </mxCell>
        <mxCell id="hzM2VJx9JfVP90ObHNJY-6" value="" style="endArrow=none;html=1;rounded=0;edgeStyle=orthogonalEdgeStyle;entryX=0;entryY=0.5;entryDx=0;entryDy=0;" parent="1" source="hzM2VJx9JfVP90ObHNJY-1" target="hzM2VJx9JfVP90ObHNJY-4" edge="1">
          <mxGeometry width="50" height="50" relative="1" as="geometry">
            <mxPoint x="90" y="58" as="sourcePoint" />
            <mxPoint x="140" y="120" as="targetPoint" />
            <Array as="points">
              <mxPoint x="140" y="90" />
              <mxPoint x="140" y="145" />
            </Array>
          </mxGeometry>
        </mxCell>
        <mxCell id="hzM2VJx9JfVP90ObHNJY-13" value="" style="rounded=0;orthogonalLoop=1;jettySize=auto;html=1;dashed=1;exitX=1;exitY=0.5;exitDx=0;exitDy=0;entryX=0;entryY=0.5;entryDx=0;entryDy=0;" parent="1" source="hzM2VJx9JfVP90ObHNJY-7" target="hzM2VJx9JfVP90ObHNJY-9" edge="1">
          <mxGeometry relative="1" as="geometry" />
        </mxCell>
        <mxCell id="hzM2VJx9JfVP90ObHNJY-14" value="include" style="edgeLabel;html=1;align=center;verticalAlign=middle;resizable=0;points=[];" parent="hzM2VJx9JfVP90ObHNJY-13" vertex="1" connectable="0">
          <mxGeometry x="-0.0127" y="-1" relative="1" as="geometry">
            <mxPoint as="offset" />
          </mxGeometry>
        </mxCell>
        <mxCell id="hzM2VJx9JfVP90ObHNJY-7" value="Запрос к семантической сети" style="rounded=1;whiteSpace=wrap;html=1;" parent="1" vertex="1">
          <mxGeometry x="160" y="275" width="120" height="40" as="geometry" />
        </mxCell>
        <mxCell id="hzM2VJx9JfVP90ObHNJY-8" value="Запрос на получение узлов" style="rounded=1;whiteSpace=wrap;html=1;" parent="1" vertex="1">
          <mxGeometry x="360" y="200" width="120" height="40" as="geometry" />
        </mxCell>
        <mxCell id="hzM2VJx9JfVP90ObHNJY-9" value="Запрос на получение связей" style="rounded=1;whiteSpace=wrap;html=1;" parent="1" vertex="1">
          <mxGeometry x="360" y="250" width="120" height="40" as="geometry" />
        </mxCell>
        <mxCell id="hzM2VJx9JfVP90ObHNJY-10" value="Запрос на получение интентов" style="rounded=1;whiteSpace=wrap;html=1;" parent="1" vertex="1">
          <mxGeometry x="360" y="300" width="120" height="40" as="geometry" />
        </mxCell>
        <mxCell id="hzM2VJx9JfVP90ObHNJY-11" value="Запрос на получение значений" style="rounded=1;whiteSpace=wrap;html=1;" parent="1" vertex="1">
          <mxGeometry x="360" y="350" width="120" height="40" as="geometry" />
        </mxCell>
        <mxCell id="hzM2VJx9JfVP90ObHNJY-15" value="" style="rounded=0;orthogonalLoop=1;jettySize=auto;html=1;dashed=1;exitX=1;exitY=0.5;exitDx=0;exitDy=0;entryX=0;entryY=0.5;entryDx=0;entryDy=0;" parent="1" source="hzM2VJx9JfVP90ObHNJY-7" target="hzM2VJx9JfVP90ObHNJY-8" edge="1">
          <mxGeometry relative="1" as="geometry">
            <mxPoint x="300" y="388.67" as="sourcePoint" />
            <mxPoint x="380" y="400.67" as="targetPoint" />
          </mxGeometry>
        </mxCell>
        <mxCell id="hzM2VJx9JfVP90ObHNJY-16" value="include" style="edgeLabel;html=1;align=center;verticalAlign=middle;resizable=0;points=[];" parent="hzM2VJx9JfVP90ObHNJY-15" vertex="1" connectable="0">
          <mxGeometry x="-0.0127" y="-1" relative="1" as="geometry">
            <mxPoint as="offset" />
          </mxGeometry>
        </mxCell>
        <mxCell id="hzM2VJx9JfVP90ObHNJY-17" value="" style="rounded=0;orthogonalLoop=1;jettySize=auto;html=1;dashed=1;entryX=0;entryY=0.5;entryDx=0;entryDy=0;exitX=1;exitY=0.5;exitDx=0;exitDy=0;" parent="1" source="hzM2VJx9JfVP90ObHNJY-7" target="hzM2VJx9JfVP90ObHNJY-10" edge="1">
          <mxGeometry relative="1" as="geometry">
            <mxPoint x="290" y="429.67" as="sourcePoint" />
            <mxPoint x="390" y="410.67" as="targetPoint" />
          </mxGeometry>
        </mxCell>
        <mxCell id="hzM2VJx9JfVP90ObHNJY-18" value="include" style="edgeLabel;html=1;align=center;verticalAlign=middle;resizable=0;points=[];" parent="hzM2VJx9JfVP90ObHNJY-17" vertex="1" connectable="0">
          <mxGeometry x="-0.0127" y="-1" relative="1" as="geometry">
            <mxPoint as="offset" />
          </mxGeometry>
        </mxCell>
        <mxCell id="hzM2VJx9JfVP90ObHNJY-19" value="" style="rounded=0;orthogonalLoop=1;jettySize=auto;html=1;dashed=1;exitX=1;exitY=0.5;exitDx=0;exitDy=0;entryX=0;entryY=0.5;entryDx=0;entryDy=0;" parent="1" source="hzM2VJx9JfVP90ObHNJY-7" target="hzM2VJx9JfVP90ObHNJY-11" edge="1">
          <mxGeometry relative="1" as="geometry">
            <mxPoint x="320" y="408.67" as="sourcePoint" />
            <mxPoint x="400" y="420.67" as="targetPoint" />
          </mxGeometry>
        </mxCell>
        <mxCell id="hzM2VJx9JfVP90ObHNJY-20" value="include" style="edgeLabel;html=1;align=center;verticalAlign=middle;resizable=0;points=[];" parent="hzM2VJx9JfVP90ObHNJY-19" vertex="1" connectable="0">
          <mxGeometry x="-0.0127" y="-1" relative="1" as="geometry">
            <mxPoint as="offset" />
          </mxGeometry>
        </mxCell>
        <mxCell id="hzM2VJx9JfVP90ObHNJY-23" style="edgeStyle=orthogonalEdgeStyle;rounded=0;orthogonalLoop=1;jettySize=auto;html=1;entryX=1;entryY=0.5;entryDx=0;entryDy=0;dashed=1;exitX=1;exitY=0.5;exitDx=0;exitDy=0;" parent="1" source="mDojmJ12JjbmjBfZj7HK-2" target="hzM2VJx9JfVP90ObHNJY-9" edge="1">
          <mxGeometry relative="1" as="geometry">
            <mxPoint x="570" y="30" as="sourcePoint" />
            <mxPoint x="490" y="170" as="targetPoint" />
          </mxGeometry>
        </mxCell>
        <mxCell id="hzM2VJx9JfVP90ObHNJY-25" style="edgeStyle=orthogonalEdgeStyle;rounded=0;orthogonalLoop=1;jettySize=auto;html=1;entryX=1;entryY=0.5;entryDx=0;entryDy=0;dashed=1;exitX=1;exitY=0.5;exitDx=0;exitDy=0;" parent="1" source="mDojmJ12JjbmjBfZj7HK-2" target="hzM2VJx9JfVP90ObHNJY-10" edge="1">
          <mxGeometry relative="1" as="geometry">
            <mxPoint x="550" y="20" as="sourcePoint" />
            <mxPoint x="500" y="180" as="targetPoint" />
          </mxGeometry>
        </mxCell>
        <mxCell id="hzM2VJx9JfVP90ObHNJY-27" style="edgeStyle=orthogonalEdgeStyle;rounded=0;orthogonalLoop=1;jettySize=auto;html=1;entryX=1;entryY=0.5;entryDx=0;entryDy=0;dashed=1;exitX=1;exitY=0.5;exitDx=0;exitDy=0;" parent="1" source="mDojmJ12JjbmjBfZj7HK-2" target="hzM2VJx9JfVP90ObHNJY-11" edge="1">
          <mxGeometry relative="1" as="geometry">
            <mxPoint x="580" y="40" as="sourcePoint" />
            <mxPoint x="510" y="190" as="targetPoint" />
          </mxGeometry>
        </mxCell>
        <mxCell id="hzM2VJx9JfVP90ObHNJY-30" value="extend" style="edgeLabel;html=1;align=center;verticalAlign=middle;resizable=0;points=[];" parent="hzM2VJx9JfVP90ObHNJY-27" vertex="1" connectable="0">
          <mxGeometry x="-0.5224" y="1" relative="1" as="geometry">
            <mxPoint y="-42" as="offset" />
          </mxGeometry>
        </mxCell>
        <mxCell id="mDojmJ12JjbmjBfZj7HK-1" value="Просмотреть данные&lt;br&gt;(Документы)" style="rounded=1;whiteSpace=wrap;html=1;" parent="1" vertex="1">
          <mxGeometry x="360" y="100" width="140" height="40" as="geometry" />
        </mxCell>
        <mxCell id="mDojmJ12JjbmjBfZj7HK-2" value="Просмотреть&amp;nbsp;данные&lt;br&gt;(Семантическую сеть)" style="rounded=1;whiteSpace=wrap;html=1;" parent="1" vertex="1">
          <mxGeometry x="360" y="150" width="140" height="40" as="geometry" />
        </mxCell>
        <mxCell id="mDojmJ12JjbmjBfZj7HK-3" value="" style="rounded=0;orthogonalLoop=1;jettySize=auto;html=1;dashed=1;exitX=1;exitY=0.5;exitDx=0;exitDy=0;entryX=0;entryY=0.5;entryDx=0;entryDy=0;" parent="1" source="hzM2VJx9JfVP90ObHNJY-4" target="mDojmJ12JjbmjBfZj7HK-1" edge="1">
          <mxGeometry relative="1" as="geometry">
            <mxPoint x="300" y="425" as="sourcePoint" />
            <mxPoint x="370" y="235" as="targetPoint" />
          </mxGeometry>
        </mxCell>
        <mxCell id="mDojmJ12JjbmjBfZj7HK-4" value="include" style="edgeLabel;html=1;align=center;verticalAlign=middle;resizable=0;points=[];" parent="mDojmJ12JjbmjBfZj7HK-3" vertex="1" connectable="0">
          <mxGeometry x="-0.0127" y="-1" relative="1" as="geometry">
            <mxPoint as="offset" />
          </mxGeometry>
        </mxCell>
        <mxCell id="mDojmJ12JjbmjBfZj7HK-5" value="" style="rounded=0;orthogonalLoop=1;jettySize=auto;html=1;dashed=1;exitX=1;exitY=0.5;exitDx=0;exitDy=0;entryX=0;entryY=0.5;entryDx=0;entryDy=0;" parent="1" source="hzM2VJx9JfVP90ObHNJY-4" target="mDojmJ12JjbmjBfZj7HK-2" edge="1">
          <mxGeometry relative="1" as="geometry">
            <mxPoint x="310" y="435" as="sourcePoint" />
            <mxPoint x="380" y="245" as="targetPoint" />
          </mxGeometry>
        </mxCell>
        <mxCell id="mDojmJ12JjbmjBfZj7HK-6" value="include" style="edgeLabel;html=1;align=center;verticalAlign=middle;resizable=0;points=[];" parent="mDojmJ12JjbmjBfZj7HK-5" vertex="1" connectable="0">
          <mxGeometry x="-0.0127" y="-1" relative="1" as="geometry">
            <mxPoint as="offset" />
          </mxGeometry>
        </mxCell>
        <mxCell id="mDojmJ12JjbmjBfZj7HK-8" value="Добавить данные&lt;br&gt;(Документ)" style="rounded=1;whiteSpace=wrap;html=1;" parent="1" vertex="1">
          <mxGeometry x="360" width="140" height="40" as="geometry" />
        </mxCell>
        <mxCell id="mDojmJ12JjbmjBfZj7HK-9" value="Удалить данные&lt;br&gt;(Документ)" style="rounded=1;whiteSpace=wrap;html=1;" parent="1" vertex="1">
          <mxGeometry x="360" y="50" width="140" height="40" as="geometry" />
        </mxCell>
        <mxCell id="mDojmJ12JjbmjBfZj7HK-11" value="" style="rounded=0;orthogonalLoop=1;jettySize=auto;html=1;dashed=1;exitX=1;exitY=0.5;exitDx=0;exitDy=0;entryX=0;entryY=0.5;entryDx=0;entryDy=0;" parent="1" source="hzM2VJx9JfVP90ObHNJY-3" target="mDojmJ12JjbmjBfZj7HK-9" edge="1">
          <mxGeometry relative="1" as="geometry">
            <mxPoint x="290" y="155" as="sourcePoint" />
            <mxPoint x="370" y="180" as="targetPoint" />
          </mxGeometry>
        </mxCell>
        <mxCell id="mDojmJ12JjbmjBfZj7HK-12" value="include" style="edgeLabel;html=1;align=center;verticalAlign=middle;resizable=0;points=[];" parent="mDojmJ12JjbmjBfZj7HK-11" vertex="1" connectable="0">
          <mxGeometry x="-0.0127" y="-1" relative="1" as="geometry">
            <mxPoint as="offset" />
          </mxGeometry>
        </mxCell>
        <mxCell id="mDojmJ12JjbmjBfZj7HK-13" value="" style="rounded=0;orthogonalLoop=1;jettySize=auto;html=1;dashed=1;exitX=1;exitY=0.5;exitDx=0;exitDy=0;entryX=0;entryY=0.5;entryDx=0;entryDy=0;" parent="1" source="hzM2VJx9JfVP90ObHNJY-3" target="mDojmJ12JjbmjBfZj7HK-8" edge="1">
          <mxGeometry relative="1" as="geometry">
            <mxPoint x="300" y="165" as="sourcePoint" />
            <mxPoint x="380" y="190" as="targetPoint" />
          </mxGeometry>
        </mxCell>
        <mxCell id="mDojmJ12JjbmjBfZj7HK-14" value="include" style="edgeLabel;html=1;align=center;verticalAlign=middle;resizable=0;points=[];" parent="mDojmJ12JjbmjBfZj7HK-13" vertex="1" connectable="0">
          <mxGeometry x="-0.0127" y="-1" relative="1" as="geometry">
            <mxPoint as="offset" />
          </mxGeometry>
        </mxCell>
        <mxCell id="mDojmJ12JjbmjBfZj7HK-18" value="" style="rounded=0;orthogonalLoop=1;jettySize=auto;html=1;endArrow=none;endFill=0;entryX=0;entryY=0.5;entryDx=0;entryDy=0;" parent="1" source="vhmcVkispBj3sMKyBSZb-9" target="hzM2VJx9JfVP90ObHNJY-7" edge="1">
          <mxGeometry relative="1" as="geometry">
            <mxPoint x="99.21523629224953" y="328.7693131709725" as="sourcePoint" />
            <mxPoint x="180" y="315" as="targetPoint" />
          </mxGeometry>
        </mxCell>
        <mxCell id="vhmcVkispBj3sMKyBSZb-1" style="edgeStyle=orthogonalEdgeStyle;rounded=0;orthogonalLoop=1;jettySize=auto;html=1;entryX=1;entryY=0.5;entryDx=0;entryDy=0;dashed=1;exitX=1;exitY=0.5;exitDx=0;exitDy=0;" edge="1" parent="1" source="mDojmJ12JjbmjBfZj7HK-1" target="mDojmJ12JjbmjBfZj7HK-9">
          <mxGeometry relative="1" as="geometry">
            <mxPoint x="510" y="180" as="sourcePoint" />
            <mxPoint x="490" y="380" as="targetPoint" />
          </mxGeometry>
        </mxCell>
        <mxCell id="vhmcVkispBj3sMKyBSZb-3" style="edgeStyle=orthogonalEdgeStyle;rounded=0;orthogonalLoop=1;jettySize=auto;html=1;dashed=1;exitX=1;exitY=0.5;exitDx=0;exitDy=0;entryX=1;entryY=0.5;entryDx=0;entryDy=0;" edge="1" parent="1" source="mDojmJ12JjbmjBfZj7HK-1" target="mDojmJ12JjbmjBfZj7HK-8">
          <mxGeometry relative="1" as="geometry">
            <mxPoint x="510" y="180" as="sourcePoint" />
            <mxPoint x="720" y="180" as="targetPoint" />
          </mxGeometry>
        </mxCell>
        <mxCell id="vhmcVkispBj3sMKyBSZb-4" value="extend" style="edgeLabel;html=1;align=center;verticalAlign=middle;resizable=0;points=[];" vertex="1" connectable="0" parent="vhmcVkispBj3sMKyBSZb-3">
          <mxGeometry x="-0.7143" y="-1" relative="1" as="geometry">
            <mxPoint as="offset" />
          </mxGeometry>
        </mxCell>
        <mxCell id="vhmcVkispBj3sMKyBSZb-8" value="&lt;u&gt;&lt;b&gt;&lt;i&gt;Модуль&lt;/i&gt;&lt;/b&gt;&lt;br style=&quot;border-color: var(--border-color);&quot;&gt;&lt;/u&gt;Диалог" style="shape=hexagon;perimeter=hexagonPerimeter2;whiteSpace=wrap;html=1;fixedSize=1;" vertex="1" parent="1">
          <mxGeometry x="20" y="250" width="100" height="40" as="geometry" />
        </mxCell>
        <mxCell id="vhmcVkispBj3sMKyBSZb-9" value="&lt;u&gt;&lt;b&gt;&lt;i&gt;Модуль&lt;br style=&quot;border-color: var(--border-color);&quot;&gt;&lt;/i&gt;&lt;/b&gt;&lt;/u&gt;Тестирование" style="shape=hexagon;perimeter=hexagonPerimeter2;whiteSpace=wrap;html=1;fixedSize=1;" vertex="1" parent="1">
          <mxGeometry x="20" y="300" width="100" height="40" as="geometry" />
        </mxCell>
      </root>
    </mxGraphModel>
  </diagram>
</mxfile>
